<?xml version="1.0" encoding="UTF-8"?>
<svg viewBox="0 0 640 480" xmlns="http://www.w3.org/2000/svg">
 <g fill-rule="evenodd">
  <path d="m332.12 398.47c4.308-1.951 13.434-8.286 13.434-8.286 150.83-88.167 150.82-139.82 153.48-156.31 1.928-11.983 17.941-83.381-22-128-34.168-38.167-54-36-54-36s-12.1 5.988-21.307-5.485c-8.373-10.432-19.705-12.632-27.984-5.907-6.805 5.528-17.475-2.875-25.709-3.607-35.022-3.117-33.532 2.741-43.5 2.418-28.334-0.918-36.383 14.531-43.5 17.582-18.432 7.899-66.346 31.659-70.326 92.998-0.552 8.502-8.708 41.327 2.373 67.104 17.787 41.375 32.104 60.108 51.278 88.753s46.663 63.47 46.663 63.47 3.134 3.353 3.243 4.815c0.24899 3.33 9.762 6.093 21.534 7.658 6.319 0.83997 10.79 1.303 16.326-1.202z" fill="#ff5000"/>
  <g fill="#fff">
   <path d="m500.03 233.88c-2.586-84.082-62.814-110.52-119-141-56.081-6.3-97.223 12.67-128 42-22.754 21.685-43.708 53.596-44 90-0.332 41.403 19.17 73.949 38 101-25.14-32.089-60.967-80.434-59-134 1.025-27.92 18.743-57.382 34-72 9.787-9.377 25.943-17.864 41-25 33.965-16.096 75.278-13.443 115-3-27.004-17.971-76.451-32.383-116-17 28.142-34.029 94.458-12.773 116 14-5.141-15.859-13.402-28.598-29-34 22.862-11.492 35.036 10.891 34 33 3.877-15.937 26.834-36.451 41-18-15.205 4.796-27.611 12.39-39 21 27.182-15.863 82.359-14.651 93 15-19.838-11.938-57.875-20.658-92-13 59.771 10.562 120.19 22.316 121 90 0.35602 29.659-4.886 36.447-7 51z"/>
   <path d="m333.2 402.88c0.405-0.97302-2.472-0.46698 0.92499-4.404 58.092-36.351 136.33-75.241 128.91-171.6-2.557-33.195-19.268-58.244-35-81-13.201-19.093-30.139-41.582-46-53 12.691 39.307 30.994 89.392 26 143-2.838 30.465-17.383 61.369-30 87-5.881 11.944-43.109 90.263-63.023 74.984 6.845-107.87 4.952-232.1 55.857-294.15 1.766-2.152 7-6 11.166-10.834-33.722 9.425-64.235 22.035-85 44-21.179 22.401-39.113 62.144-41 100-1.723 34.578 7.962 59.46 16 87 6.503 22.279 26.706 68.141 27.321 71.992 0.55399 3.473 32.179 11.008 33.845 7.009zm-12.167 3.999"/>
  </g>
  <path d="m326.32 443.26c-0.84601 5.437-6.84 9.018-13.389 8l-13.832-2.151c-6.549-1.018-11.174-6.248-10.328-11.686l2.805-18.047c0.84601-5.437 6.84-9.019 13.389-8.001l13.832 2.151c6.549 1.018 11.174 6.25 10.328 11.687l-2.805 18.047z" fill="#003f7f"/>
  <ellipse transform="matrix(.9868 .1618 -.1618 .9868 102.39 -63.046)" cx="283.7" cy="445.22" rx="15.402" ry="6.999" fill="#fff"/>
  <path d="m334.12 398.47s3.278 11.233-21.258 8.403c-21.667-2.499-16.603-14.859-16.603-14.859 12.683 6.693 22.936 6.54 37.861 6.456z" fill="#003f7f"/>
 </g>
</svg>
